<svg width="200" height="124.27637563415854" viewBox="0 0 200 124.27637563415854" class="css-1j8o68f"><defs id="SvgjsDefs1264"></defs><g id="SvgjsG1265" featurekey="rDwwlG-0" transform="matrix(1.5151515151515151,0,0,1.5151515151515151,45.45454545454545,-11.029330166903408)" fill="#111111"><metadata xmlns="http://www.w3.org/2000/svg"><!--?xpacket begin="&;" id="W5M0MpCehiHzreSzNTczkc9d"?--><x:xmpmeta xmlns:x="adobe:ns:meta/" x:xmptk="Adobe XMP Core 5.6-c145 79.163499, 2018/08/13-16:40:22        "></x:xmpmeta><!--?xpacket end="w"?--></metadata><path xmlns="http://www.w3.org/2000/svg" d="M4.0325317,52.8086548h7.6220093c0.244812,0,0.4577026-0.2767334,0.4577026-0.6173706v-8.5587158  c0-0.3300171-0.2128906-0.6068115-0.4577026-0.6068115H4.0325317C3.4683838,43.0257568,3,43.5793457,3,44.25v7.3238525  C3,52.255188,3.4683838,52.8086548,4.0325317,52.8086548z"></path><path xmlns="http://www.w3.org/2000/svg" d="M3.8834839,40.8967285h25.1119995c0.159668,0,0.3193359-0.1915894,0.3193359-0.4577026v-8.2606812  c0-0.5854492-0.3938599-1.0751343-0.883606-1.0751343H3.8834839C3.404541,31.1032104,3,31.5928955,3,32.1783447v7.6433105  C3,40.4071045,3.404541,40.8967285,3.8834839,40.8967285z"></path><path xmlns="http://www.w3.org/2000/svg" d="M3.8834839,64.7205811h24.5477295c0.4897461,0,0.883606-0.4789429,0.883606-1.0751343v-8.25  c0-0.2767334-0.159668-0.4577637-0.3193359-0.4577637H3.8834839C3.404541,54.9376831,3,55.416748,3,56.0128784v7.6325684  C3,64.2416382,3.404541,64.7205811,3.8834839,64.7205811z"></path><path xmlns="http://www.w3.org/2000/svg" d="M40.2367554,43.0257568H14.5606079c-0.1490479,0-0.3193359,0.1810303-0.3193359,0.4471436v8.8780518  c0,0.2661133,0.1702881,0.4577026,0.3193359,0.4577026h25.6761475c0.1490479,0,0.3193359-0.1915894,0.3193359-0.4577026v-8.8780518  C40.5560913,43.2067871,40.3858032,43.0257568,40.2367554,43.0257568z"></path><path xmlns="http://www.w3.org/2000/svg" d="M31.7631836,40.8967285h25.6761475c0.159668,0,0.319397-0.1915894,0.319397-0.4577026v-8.2606812  c0-0.5854492-0.3938599-1.0751343-0.883606-1.0751343H32.3380737c-0.4896851,0-0.8942261,0.4896851-0.8942261,1.0751343v8.2606812  C31.4438477,40.7051392,31.6141968,40.8967285,31.7631836,40.8967285z"></path><path xmlns="http://www.w3.org/2000/svg" d="M31.4438477,55.3954468v8.25c0,0.5961914,0.404541,1.0751343,0.8942261,1.0751343h24.5370483  c0.4897461,0,0.883606-0.4789429,0.883606-1.0751343v-8.25c0-0.2767334-0.159729-0.4577637-0.319397-0.4577637H31.7631836  C31.6141968,54.9376831,31.4438477,55.1187134,31.4438477,55.3954468z"></path><path xmlns="http://www.w3.org/2000/svg" d="M60.3561401,17.0622559h7.6218872C68.5422363,17.0622559,69,16.508667,69,15.8273926V8.5141602  c0-0.6812744-0.4577637-1.2348022-1.0219727-1.2348022h-7.6218872c-0.2555542,0-0.4683838,0.2767944-0.4683838,0.6068115v8.5693359  C59.8877563,16.7854614,60.1005859,17.0622559,60.3561401,17.0622559z"></path><path xmlns="http://www.w3.org/2000/svg" d="M43.5686646,28.9741821h24.5477905C68.6061401,28.9741821,69,28.4951782,69,27.8990479v-7.6326294  c0-0.5961304-0.3938599-1.0751343-0.8835449-1.0751343H43.0044556c-0.1489868,0-0.3193359,0.1915894-0.3193359,0.4577637v8.25  C42.6851196,28.4951782,43.0896606,28.9741821,43.5686646,28.9741821z"></path><path xmlns="http://www.w3.org/2000/svg" d="M69,32.3380737c0-0.6813354-0.4577637-1.2348633-1.0219727-1.2348633h-7.0577393  c-0.5641479,0-1.0325317,0.5535278-1.0325317,1.2348633v7.9412842c0,0.3300171,0.2128296,0.6173706,0.4683838,0.6173706h7.6218872  C68.5422363,40.8967285,69,40.3432007,69,39.6619263V32.3380737z"></path><path xmlns="http://www.w3.org/2000/svg" d="M69,44.1009521c0-0.5961304-0.3938599-1.0751953-0.8835449-1.0751953H43.0044556  c-0.1489868,0-0.3193359,0.1810303-0.3193359,0.4471436v8.8780518c0,0.2661133,0.1703491,0.4577026,0.3193359,0.4577026h25.1119995  C68.6061401,52.8086548,69,52.3297119,69,51.7335815V44.1009521z"></path><path xmlns="http://www.w3.org/2000/svg" d="M69,63.4857788v-7.3131714c0-0.6813354-0.4577637-1.2349243-1.0219727-1.2349243h-7.6218872  c-0.2555542,0-0.4683838,0.2767944-0.4683838,0.6068115v7.9412842c0,0.6813354,0.4683838,1.2348022,1.0325317,1.2348022h7.0577393  C68.5422363,64.7205811,69,64.1671143,69,63.4857788z"></path></g><g id="SvgjsG1266" featurekey="4AZ1rv-0" transform="matrix(1.1800802752056105,0,0,1.1800802752056105,-1.604908487778158,100.34434684269195)" fill="#111111"><path d="M1.36 20 l0 -13.22 l3.26 0 l3.66 5.38 c0.54 0.8 1.24 1.9 1.88 2.96 c-0.06 -1.18 -0.1 -2.46 -0.1 -3.42 l0 -4.92 l3.2 0 l0 13.22 l-3.28 0 l-4.08 -5.96 c-0.4 -0.58 -0.94 -1.48 -1.44 -2.38 c0.06 1.08 0.1 2.18 0.1 2.94 l0 5.4 l-3.2 0 z M20.14 20.28 c-3.78 0 -4.92 -2.34 -4.92 -5.02 c0 -2.62 1.08 -4.88 4.86 -4.88 c3.86 0 4.88 2.34 4.88 4.92 c0 2.74 -1.14 4.98 -4.82 4.98 z M20.1 17.96 c1.36 0 1.62 -1.26 1.62 -2.62 s-0.26 -2.64 -1.64 -2.64 c-1.36 0 -1.62 1.28 -1.62 2.6 c0 1.34 0.26 2.66 1.64 2.66 z M34.18 20 l-4.78 -13.22 l3.54 0 l2.28 6.4 c0.18 0.46 0.36 1.26 0.5 2.1 c0.18 -0.82 0.36 -1.64 0.54 -2.1 l1.36 -3.74 l-1.02 -2.66 l3.4 0 l2.32 6.4 c0.16 0.4 0.34 1.1 0.5 1.84 c0.14 -0.74 0.3 -1.42 0.46 -1.84 l2.16 -6.4 l3.26 0 l-4.52 13.22 l-2.68 0 l-2.38 -6.54 c-0.14 0.48 -0.28 0.94 -0.42 1.34 l-1.84 5.2 l-2.68 0 z M58.300000000000004 20.1 c-2.14 0.34 -2.98 -0.52 -3.24 -1.22 c-0.48 0.68 -1.2 1.4 -2.66 1.4 c-1.7 0 -3.16 -0.96 -3.16 -2.74 c0 -2.16 2.14 -3.14 5.4 -3.16 l0 -0.28 c0 -1.06 -0.26 -1.44 -1.02 -1.44 c-0.72 0 -1.06 0.34 -0.96 1.24 l-3.1 -0.58 c-0.2 -1.62 1.24 -2.94 4.28 -2.94 c2.86 0 3.92 1.18 3.92 3.76 l0 2.2 c0 1.02 0.04 1.54 1.1 1.3 z M54.64 16.88 l0 -0.74 c-1.22 0.02 -2.26 0.24 -2.26 1.16 c0 0.52 0.34 0.76 0.86 0.76 c0.6 0 1.32 -0.32 1.4 -1.18 z M60.14 20 l0 -14.36 l3.12 0 l0 14.36 l-3.12 0 z M65.34 20 l0 -14.36 l3.12 0 l0 14.36 l-3.12 0 z M74.82 20 l0 -13.22 l4.6 0 c3.88 0 5.42 1.62 5.42 4.52 c0 2.88 -1.5 4.8 -5.7 4.8 l-0.96 0 l0 3.9 l-3.36 0 z M79.3 9.6 l-1.12 0 l0 3.66 l0.94 0 c1.62 0 2.22 -0.52 2.22 -1.82 c0 -1.4 -0.7 -1.84 -2.04 -1.84 z M86.34 20 l0 -9.34 l2.9 0 l0 1.6 c0.44 -1 1.22 -1.88 2.48 -1.88 c1.48 0 1.94 0.98 1.94 0.98 l-1.86 2.68 s-0.24 -0.66 -0.92 -0.66 c-0.72 0 -1.1 0.94 -1.42 1.92 l0 4.7 l-3.12 0 z M99.05999999999999 20.28 c-3.78 0 -4.92 -2.34 -4.92 -5.02 c0 -2.62 1.08 -4.88 4.86 -4.88 c3.86 0 4.88 2.34 4.88 4.92 c0 2.74 -1.14 4.98 -4.82 4.98 z M99.02 17.96 c1.36 0 1.62 -1.26 1.62 -2.62 s-0.26 -2.64 -1.64 -2.64 c-1.36 0 -1.62 1.28 -1.62 2.6 c0 1.34 0.26 2.66 1.64 2.66 z M112.1 20 l-0.12 -1.06 c-0.46 0.66 -1.18 1.34 -2.74 1.34 c-3.14 0 -4.14 -2.7 -4.14 -5 c0 -2.92 1.6 -4.9 4.36 -4.9 c1 0 1.64 0.26 2.06 0.64 l0 -5.38 l3.12 0 l0 14.36 l-2.54 0 z M109.88 17.96 c1.12 0 1.64 -0.84 1.64 -2.76 c0 -1.36 -0.26 -2.5 -1.6 -2.5 c-1.1 0 -1.58 0.78 -1.58 2.68 c0 1.76 0.42 2.58 1.54 2.58 z M125.62 10.66 l0 9.34 l-2.82 0 l-0.08 -1.46 c-0.26 0.56 -1.04 1.74 -3.1 1.74 c-1.38 0 -2.98 -0.56 -2.98 -3.48 l0 -6.14 l3.12 0 l0 5.34 c0 1.1 0.26 1.64 0.9 1.64 c1.08 0 1.66 -1.82 1.84 -2.5 l0 -4.48 l3.12 0 z M133.22 16.68 l2.9 0.58 c-0.54 1.78 -1.58 3.02 -4.16 3.02 c-3.24 0 -4.68 -1.82 -4.68 -4.98 c0 -3.7 2.04 -4.92 4.76 -4.92 c2.56 0 4.24 1.22 4.02 3.34 l-3.06 0.62 c0.18 -1.26 -0.44 -1.64 -1 -1.64 c-1.34 0 -1.48 1.44 -1.48 2.78 c0 1.66 0.4 2.48 1.48 2.48 c0.76 0 1.22 -0.48 1.22 -1.28 z M136.96 13 l0 -2.34 l1.18 0 l0.18 -2.56 l2.9 0 l0 2.56 l2.56 0 l0 2.34 l-2.56 0 l0 3.96 c0 0.46 0.14 0.74 0.54 0.74 c0.5 0 0.6 -0.56 0.64 -1.12 l2.28 0.8 c-0.4 1.58 -1.02 2.82 -3.3 2.82 c-2.48 0 -3.28 -1.58 -3.28 -3.24 l0 -3.96 l-1.14 0 z M145.5 7.4 c0 -0.96 0.8 -1.74 1.76 -1.74 c0.98 0 1.76 0.78 1.76 1.74 s-0.78 1.76 -1.76 1.76 c-0.96 0 -1.76 -0.8 -1.76 -1.76 z M145.7 20 l0 -9.34 l3.12 0 l0 9.34 l-3.12 0 z M155.38 20.28 c-3.78 0 -4.92 -2.34 -4.92 -5.02 c0 -2.62 1.08 -4.88 4.86 -4.88 c3.86 0 4.88 2.34 4.88 4.92 c0 2.74 -1.14 4.98 -4.82 4.98 z M155.33999999999997 17.96 c1.36 0 1.62 -1.26 1.62 -2.62 s-0.26 -2.64 -1.64 -2.64 c-1.36 0 -1.62 1.28 -1.62 2.6 c0 1.34 0.26 2.66 1.64 2.66 z M161.85999999999999 20 l0 -9.34 l2.9 0 l0 1.48 c0.24 -0.56 1.02 -1.76 3.1 -1.76 c1.38 0 2.98 0.56 2.98 3.48 l0 6.14 l-3.12 0 l0 -5.34 c0 -1.1 -0.26 -1.64 -0.9 -1.64 c-1.12 0 -1.68 1.56 -1.84 2.16 l0 4.82 l-3.12 0 z"></path></g></svg>