<?xml version="1.0" encoding="utf-8"?>
<!-- Generator: Adobe Illustrator 24.2.3, SVG Export Plug-In . SVG Version: 6.00 Build 0)  -->
<svg version="1.1" id="Layer_1" xmlns="http://www.w3.org/2000/svg" xmlns:xlink="http://www.w3.org/1999/xlink" x="0px" y="0px"
	 viewBox="0 0 100 87" style="enable-background:new 0 0 100 87;" xml:space="preserve">
<style type="text/css">
	.st0{fill:#111111;}
</style>
<g id="SvgjsG1265" transform="matrix(1.5151515151515151,0,0,1.5151515151515151,45.45454545454545,-11.029330166903408)">
	<path class="st0" d="M-29,52.8h7.6c0.2,0,0.5-0.3,0.5-0.6v-8.6c0-0.3-0.2-0.6-0.5-0.6H-29c-0.6,0-1,0.6-1,1.2v7.3
		C-30,52.3-29.5,52.8-29,52.8z"/>
	<path class="st0" d="M-29.1,40.9H-4c0.2,0,0.3-0.2,0.3-0.5v-8.3c0-0.6-0.4-1.1-0.9-1.1h-24.5c-0.5,0-0.9,0.5-0.9,1.1v7.6
		C-30,40.4-29.6,40.9-29.1,40.9z"/>
	<path class="st0" d="M-29.1,64.7h24.5c0.5,0,0.9-0.5,0.9-1.1v-8.2c0-0.3-0.2-0.5-0.3-0.5h-25.1c-0.5,0-0.9,0.5-0.9,1.1v7.6
		C-30,64.2-29.6,64.7-29.1,64.7z"/>
	<path class="st0" d="M7.2,43h-25.7c-0.1,0-0.3,0.2-0.3,0.4v8.9c0,0.3,0.2,0.5,0.3,0.5H7.2c0.1,0,0.3-0.2,0.3-0.5v-8.9
		C7.6,43.2,7.4,43,7.2,43z"/>
	<path class="st0" d="M-1.2,40.9h25.7c0.2,0,0.3-0.2,0.3-0.5v-8.3c0-0.6-0.4-1.1-0.9-1.1H-0.7c-0.5,0-0.9,0.5-0.9,1.1v8.3
		C-1.6,40.7-1.4,40.9-1.2,40.9z"/>
	<path class="st0" d="M-1.6,55.4v8.2c0,0.6,0.4,1.1,0.9,1.1h24.5c0.5,0,0.9-0.5,0.9-1.1v-8.2c0-0.3-0.2-0.5-0.3-0.5H-1.2
		C-1.4,54.9-1.6,55.1-1.6,55.4z"/>
	<path class="st0" d="M27.4,17.1H35c0.6,0,1-0.6,1-1.2V8.5c0-0.7-0.5-1.2-1-1.2h-7.6c-0.3,0-0.5,0.3-0.5,0.6v8.6
		C26.9,16.8,27.1,17.1,27.4,17.1z"/>
	<path class="st0" d="M10.6,29h24.5c0.5,0,0.9-0.5,0.9-1.1v-7.6c0-0.6-0.4-1.1-0.9-1.1H10c-0.1,0-0.3,0.2-0.3,0.5v8.2
		C9.7,28.5,10.1,29,10.6,29z"/>
	<path class="st0" d="M36,32.3c0-0.7-0.5-1.2-1-1.2h-7.1c-0.6,0-1,0.6-1,1.2v7.9c0,0.3,0.2,0.6,0.5,0.6H35c0.6,0,1-0.6,1-1.2V32.3z"
		/>
	<path class="st0" d="M36,44.1c0-0.6-0.4-1.1-0.9-1.1H10c-0.1,0-0.3,0.2-0.3,0.4v8.9c0,0.3,0.2,0.5,0.3,0.5h25.1
		c0.5,0,0.9-0.5,0.9-1.1V44.1z"/>
	<path class="st0" d="M36,63.5v-7.3c0-0.7-0.5-1.2-1-1.2h-7.6c-0.3,0-0.5,0.3-0.5,0.6v7.9c0,0.7,0.5,1.2,1,1.2H35
		C35.5,64.7,36,64.2,36,63.5z"/>
</g>
</svg>
