<?xml version="1.0" encoding="utf-8"?>
<!-- Generator: Adobe Illustrator 24.2.3, SVG Export Plug-In . SVG Version: 6.00 Build 0)  -->
<svg version="1.1" id="Layer_1" xmlns="http://www.w3.org/2000/svg" xmlns:xlink="http://www.w3.org/1999/xlink" x="0px" y="0px"
	 viewBox="0 0 100 87" style="enable-background:new 0 0 100 87;" xml:space="preserve">
<style type="text/css">
	.st0{fill:#111111;}
</style>
<g id="SvgjsG1265" transform="matrix(1.5151515151515151,0,0,1.5151515151515151,45.45454545454545,-11.029330166903408)">
	<path class="st0" d="M-83.9,66.8h22.7c0.7,0,1.4-0.8,1.4-1.8V39.5c0-1-0.6-1.8-1.4-1.8h-22.7c-1.7,0-3.1,1.6-3.1,3.6v21.8
		C-87,65.2-85.6,66.8-83.9,66.8z"/>
	<path class="st0" d="M-84.3,31.4h74.7c0.5,0,1-0.6,1-1.4V5.5c0-1.7-1.2-3.2-2.6-3.2h-73c-1.4,0-2.6,1.5-2.6,3.2v22.7
		C-87,29.9-85.8,31.4-84.3,31.4z"/>
	<path class="st0" d="M-84.3,102.3h73c1.5,0,2.6-1.4,2.6-3.2V74.5c0-0.8-0.5-1.4-1-1.4h-74.7c-1.4,0-2.6,1.4-2.6,3.2v22.7
		C-87,100.9-85.8,102.3-84.3,102.3z"/>
	<path class="st0" d="M23.8,37.7h-76.4c-0.4,0-1,0.5-1,1.3v26.4c0,0.8,0.5,1.4,1,1.4h76.4c0.4,0,1-0.6,1-1.4V39.1
		C24.8,38.3,24.3,37.7,23.8,37.7z"/>
	<path class="st0" d="M-1.4,31.4H75c0.5,0,1-0.6,1-1.4V5.5c0-1.7-1.2-3.2-2.6-3.2h-73c-1.5,0-2.7,1.5-2.7,3.2V30
		C-2.3,30.8-1.8,31.4-1.4,31.4z"/>
	<path class="st0" d="M-2.3,74.5v24.5c0,1.8,1.2,3.2,2.7,3.2h73c1.5,0,2.6-1.4,2.6-3.2V74.5c0-0.8-0.5-1.4-1-1.4H-1.4
		C-1.8,73.2-2.3,73.7-2.3,74.5z"/>
	<path class="st0" d="M83.7-39.5h22.7c1.7,0,3-1.6,3-3.7v-21.8c0-2-1.4-3.7-3-3.7H83.7c-0.8,0-1.4,0.8-1.4,1.8v25.5
		C82.3-40.3,82.9-39.5,83.7-39.5z"/>
	<path class="st0" d="M33.7-4.1h73c1.5,0,2.6-1.4,2.6-3.2V-30c0-1.8-1.2-3.2-2.6-3.2H32.1c-0.4,0-1,0.6-1,1.4v24.5
		C31.1-5.5,32.3-4.1,33.7-4.1z"/>
	<path class="st0" d="M109.4,5.9c0-2-1.4-3.7-3-3.7h-21c-1.7,0-3.1,1.6-3.1,3.7v23.6c0,1,0.6,1.8,1.4,1.8h22.7c1.7,0,3-1.6,3-3.7
		V5.9z"/>
	<path class="st0" d="M109.4,40.9c0-1.8-1.2-3.2-2.6-3.2H32.1c-0.4,0-1,0.5-1,1.3v26.4c0,0.8,0.5,1.4,1,1.4h74.7
		c1.5,0,2.6-1.4,2.6-3.2V40.9z"/>
	<path class="st0" d="M109.4,98.6V76.9c0-2-1.4-3.7-3-3.7H83.7c-0.8,0-1.4,0.8-1.4,1.8v23.6c0,2,1.4,3.7,3.1,3.7h21
		C108.1,102.3,109.4,100.6,109.4,98.6z"/>
</g>
<g id="SvgjsG1266" transform="matrix(1.1800802752056105,0,0,1.1800802752056105,-1.604908487778158,100.34434684269195)">
	<path class="st0" d="M-197.8,130V90.7h9.7l10.9,16c1.6,2.4,3.7,5.7,5.6,8.8c-0.2-3.5-0.3-7.3-0.3-10.2V90.7h9.5V130h-9.8
		l-12.1-17.7c-1.2-1.7-2.8-4.4-4.3-7.1c0.2,3.2,0.3,6.5,0.3,8.7V130C-188.3,130-197.8,130-197.8,130z M-142,130.9
		c-11.2,0-14.6-7-14.6-14.9c0-7.8,3.2-14.5,14.5-14.5c11.5,0,14.5,7,14.5,14.6C-127.6,124.2-131,130.9-142,130.9z M-142.1,124
		c4,0,4.8-3.7,4.8-7.8s-0.8-7.9-4.9-7.9c-4,0-4.8,3.8-4.8,7.7C-147,120-146.2,124-142.1,124z M-100.2,130l-14.2-39.3h10.5l6.8,19
		c0.5,1.4,1.1,3.7,1.5,6.2c0.5-2.4,1.1-4.9,1.6-6.2l4-11.1l-3-7.9h10.1l6.9,19c0.5,1.2,1,3.3,1.5,5.5c0.4-2.2,0.9-4.2,1.4-5.5
		l6.4-19h9.7L-70.4,130h-8l-7.1-19.5c-0.4,1.4-0.8,2.8-1.2,4l-5.5,15.5C-92.2,130-100.2,130-100.2,130z M-28.4,130.3
		c-6.4,1-8.9-1.5-9.6-3.6c-1.4,2-3.6,4.2-7.9,4.2c-5.1,0-9.4-2.9-9.4-8.2c0-6.4,6.4-9.3,16.1-9.4v-0.8c0-3.2-0.8-4.3-3-4.3
		c-2.1,0-3.2,1-2.9,3.7l-9.2-1.7c-0.6-4.8,3.7-8.7,12.7-8.7c8.5,0,11.7,3.5,11.7,11.2v6.5c0,3,0.1,4.6,3.3,3.9L-28.4,130.3z
		 M-39.3,120.7v-2.2c-3.6,0.1-6.7,0.7-6.7,3.5c0,1.5,1,2.3,2.6,2.3C-41.7,124.3-39.6,123.3-39.3,120.7z M-22.9,130V87.3h9.3V130
		H-22.9z M-7.5,130V87.3h9.3V130H-7.5z M20.7,130V90.7h13.7c11.5,0,16.1,4.8,16.1,13.4c0,8.6-4.5,14.3-17,14.3h-2.9V130
		C30.7,130,20.7,130,20.7,130z M34.1,99.1h-3.3V110h2.8c4.8,0,6.6-1.5,6.6-5.4C40.1,100.4,38,99.1,34.1,99.1z M55,130v-27.8h8.6v4.8
		c1.3-3,3.6-5.6,7.4-5.6c4.4,0,5.8,2.9,5.8,2.9l-5.5,8c0,0-0.7-2-2.7-2c-2.1,0-3.3,2.8-4.2,5.7v14C64.3,130,55,130,55,130z
		 M92.9,130.9c-11.2,0-14.6-7-14.6-14.9c0-7.8,3.2-14.5,14.5-14.5c11.5,0,14.5,7,14.5,14.6C107.2,124.2,103.8,130.9,92.9,130.9z
		 M92.7,124c4,0,4.8-3.7,4.8-7.8s-0.8-7.9-4.9-7.9c-4,0-4.8,3.8-4.8,7.7C87.9,120,88.6,124,92.7,124z M131.7,130l-0.4-3.2
		c-1.4,2-3.5,4-8.2,4c-9.3,0-12.3-8-12.3-14.9c0-8.7,4.8-14.6,13-14.6c3,0,4.9,0.8,6.1,1.9v-16h9.3V130H131.7z M125,124
		c3.3,0,4.9-2.5,4.9-8.2c0-4-0.8-7.4-4.8-7.4c-3.3,0-4.7,2.3-4.7,8C120.5,121.5,121.7,124,125,124z M171.9,102.2V130h-8.4l-0.2-4.3
		c-0.8,1.7-3.1,5.2-9.2,5.2c-4.1,0-8.9-1.7-8.9-10.4v-18.3h9.3v15.9c0,3.3,0.8,4.9,2.7,4.9c3.2,0,4.9-5.4,5.5-7.4v-13.3
		C162.6,102.2,171.9,102.2,171.9,102.2z M194.5,120.1l8.6,1.7c-1.6,5.3-4.7,9-12.4,9c-9.6,0-13.9-5.4-13.9-14.8
		c0-11,6.1-14.6,14.2-14.6c7.6,0,12.6,3.6,12,9.9l-9.1,1.8c0.5-3.7-1.3-4.9-3-4.9c-4,0-4.4,4.3-4.4,8.3c0,4.9,1.2,7.4,4.4,7.4
		C193.1,124,194.5,122.5,194.5,120.1z M205.6,109.2v-7h3.5l0.5-7.6h8.6v7.6h7.6v7h-7.6V121c0,1.4,0.4,2.2,1.6,2.2
		c1.5,0,1.8-1.7,1.9-3.3l6.8,2.4c-1.2,4.7-3,8.4-9.8,8.4c-7.4,0-9.8-4.7-9.8-9.6v-11.8L205.6,109.2L205.6,109.2z M231,92.5
		c0-2.9,2.4-5.2,5.2-5.2c2.9,0,5.2,2.3,5.2,5.2s-2.3,5.2-5.2,5.2C233.4,97.8,231,95.4,231,92.5z M231.6,130v-27.8h9.3V130H231.6z
		 M260.4,130.9c-11.2,0-14.6-7-14.6-14.9c0-7.8,3.2-14.5,14.5-14.5c11.5,0,14.5,7,14.5,14.6C274.8,124.2,271.4,130.9,260.4,130.9z
		 M260.3,124c4,0,4.8-3.7,4.8-7.8s-0.8-7.9-4.9-7.9c-4,0-4.8,3.8-4.8,7.7C255.4,120,256.2,124,260.3,124z M279.7,130v-27.8h8.6v4.4
		c0.7-1.7,3-5.2,9.2-5.2c4.1,0,8.9,1.7,8.9,10.4V130h-9.3v-15.9c0-3.3-0.8-4.9-2.7-4.9c-3.3,0-5,4.6-5.5,6.4V130H279.7L279.7,130z"
		/>
</g>
</svg>
